<?xml version="1.0" encoding="utf-8"?>
<!-- Generator: Adobe Illustrator 27.0.1, SVG Export Plug-In . SVG Version: 6.00 Build 0)  -->
<svg version="1.1" id="Слой_1" xmlns="http://www.w3.org/2000/svg" xmlns:xlink="http://www.w3.org/1999/xlink" x="0px" y="0px"
	 width="167.7px" height="80px" viewBox="0 0 167.7 80" style="enable-background:new 0 0 167.7 80;" xml:space="preserve">
<style type="text/css">
	.st0{fill:#DCDCDC;}
</style>
<g id="студия_эпиляции_и_LPG">
	<path id="G" class="st0" d="M166.7,50.1c0,2.2-1.4,3.8-3.4,3.8c-2,0-3.4-1.5-3.4-3.5c0-2,1.4-3.5,3.4-3.5c1.5,0,2.8,0.9,3.2,2.2
		h-0.9c-0.4-0.9-1.2-1.4-2.3-1.4c-1.5,0-2.6,1.1-2.6,2.6c0,1.6,1.1,2.6,2.6,2.6c1.4,0,2.3-0.9,2.5-2.1H163v-0.8H166.7z"/>
	<path id="P" class="st0" d="M156.3,47H154v6.7h0.8v-2.2h1.4c1.5,0,2.5-0.9,2.5-2.3C158.8,47.9,157.8,47,156.3,47z M156.3,50.7h-1.4
		v-2.9h1.4c1.1,0,1.7,0.5,1.7,1.5C157.9,50.2,157.4,50.7,156.3,50.7z"/>
	<polygon id="L_00000066511014181285917600000015561614399606861997_" class="st0" points="152.7,52.9 152.7,53.7 148.6,53.7 
		148.6,47 149.4,47 149.4,52.9 	"/>
	<polygon id="и" class="st0" points="144.2,48.7 144.2,53.7 143.4,53.7 143.4,50 140.3,53.7 139.6,53.7 139.6,48.7 140.4,48.7 
		140.4,52.5 143.4,48.7 	"/>
	<path class="st0" d="M91.5,51.2c0,1.5-1.1,2.6-2.6,2.6c-1.2,0-2.2-0.8-2.6-2h0.9c0.3,0.7,0.9,1.2,1.7,1.2c0.9,0,1.6-0.6,1.7-1.5
		h-2.3v-0.7h2.3c-0.2-0.9-0.8-1.5-1.7-1.5c-0.8,0-1.4,0.4-1.7,1.1h-0.8c0.2-1.1,1.3-1.9,2.5-1.9C90.4,48.6,91.5,49.7,91.5,51.2z"/>
	<polygon class="st0" points="97.4,48.7 97.4,53.7 96.6,53.7 96.6,49.5 93.7,49.5 93.7,53.7 92.9,53.7 92.9,48.7 	"/>
	<polygon class="st0" points="103.9,48.7 103.9,53.7 103.1,53.7 103.1,50 100.1,53.7 99.3,53.7 99.3,48.7 100.1,48.7 100.1,52.5 
		103.1,48.7 	"/>
	<path class="st0" d="M110.1,48.7v5h-0.8v-4.2h-2.2l-0.2,2.8c-0.1,1-0.6,1.4-1.5,1.4H105V53h0.3c0.5,0,0.7-0.2,0.7-0.7l0.3-3.5
		H110.1z"/>
	<path id="я" class="st0" d="M113.5,48.7c-1.1,0-1.9,0.6-1.9,1.6c0,0.8,0.4,1.3,1.1,1.5l-1.2,1.8h0.9l1.1-1.7h1.3v1.7h0.8v-5H113.5
		z M114.9,51.3h-1.4c-0.7,0-1.1-0.3-1.1-0.9s0.4-0.9,1.1-0.9h1.4V51.3z"/>
	<polygon class="st0" points="123,53 123,55.1 122.2,55.1 122.2,53.7 117.6,53.7 117.6,48.7 118.4,48.7 118.4,53 121.3,53 
		121.3,48.7 122.1,48.7 122.1,53 	"/>
	<polygon class="st0" points="128.8,48.7 128.8,53.7 128,53.7 128,50 124.9,53.7 124.2,53.7 124.2,48.7 125,48.7 125,52.5 128,48.7 
			"/>
	<polygon class="st0" points="135.3,48.7 135.3,53.7 134.5,53.7 134.5,50 131.4,53.7 130.7,53.7 130.7,48.7 131.5,48.7 131.5,52.5 
		134.5,48.7 	"/>
	<path class="st0" d="M53.7,51.9c-0.3,1.2-1.3,2-2.6,2c-1.5,0-2.6-1.1-2.6-2.6c0-1.5,1.1-2.6,2.6-2.6c1.2,0,2.2,0.7,2.5,1.9h-0.8
		c-0.3-0.7-0.9-1.1-1.7-1.1c-1,0-1.8,0.8-1.8,1.8c0,1.1,0.7,1.8,1.8,1.8c0.8,0,1.5-0.5,1.7-1.2H53.7z"/>
	<polygon class="st0" points="59,48.7 59,49.5 57.2,49.5 57.2,53.7 56.4,53.7 56.4,49.5 54.5,49.5 54.5,48.7 	"/>
	<path class="st0" d="M64.7,48.7l-2.3,5.8c-0.3,0.9-0.8,1.1-1.7,1.1h-0.6v-0.8h0.5c0.6,0,0.9-0.1,1.1-0.7l0.2-0.6l-2.4-4.9h0.9
		l1.1,2.4l0.7,1.5l0.6-1.5l0.9-2.4H64.7z"/>
	<path class="st0" d="M70.1,53v-4.2h-3.7l-0.3,3.3c0,0.5-0.2,0.8-0.4,0.9h-0.6v2.1h0.8v-1.3h4.3v1.3H71V53H70.1z M69.3,53h-2.6
		c0.1-0.2,0.2-0.5,0.2-0.8l0.2-2.7h2.2V53z"/>
	<polygon class="st0" points="76.9,48.7 76.9,53.7 76,53.7 76,50 73,53.7 72.2,53.7 72.2,48.7 73,48.7 73,52.5 76.1,48.7 	"/>
	<path class="st0" d="M80.2,48.7c-1.1,0-1.9,0.6-1.9,1.6c0,0.8,0.4,1.3,1.1,1.5l-1.2,1.8h0.9l1.1-1.7h1.3v1.7h0.8v-5H80.2z
		 M81.7,51.3h-1.4c-0.7,0-1.1-0.3-1.1-0.9s0.4-0.9,1.1-0.9h1.4V51.3z"/>
</g>
<g id="Laser_Zone">
	<path id="L" class="st0" d="M48.6,40.5V23.5h2.5v14.6h7.8v2.3H48.6z"/>
	<path id="a" class="st0" d="M72.1,29v11.4h-2l-0.4-1.3c-0.4,0.5-0.9,0.9-1.5,1.2c-0.6,0.3-1.2,0.4-1.9,0.4c-0.8,0-1.5-0.2-2.2-0.5
		c-0.7-0.3-1.3-0.7-1.8-1.3c-0.5-0.5-0.9-1.2-1.2-1.9c-0.3-0.7-0.5-1.5-0.5-2.3s0.2-1.6,0.5-2.3c0.3-0.7,0.7-1.4,1.2-1.9
		c0.5-0.5,1.1-1,1.8-1.3c0.7-0.3,1.4-0.5,2.2-0.5c0.6,0,1.2,0.1,1.8,0.4c0.6,0.2,1.1,0.6,1.6,1.2l0.4-1.3H72.1z M66.3,38.7
		c0.5,0,0.9-0.1,1.3-0.3c0.4-0.2,0.8-0.5,1.1-0.8c0.3-0.4,0.5-0.8,0.7-1.3c0.2-0.5,0.3-1,0.3-1.5c0-0.5-0.1-1-0.3-1.5
		c-0.2-0.5-0.4-0.9-0.7-1.2c-0.3-0.4-0.7-0.6-1.1-0.9c-0.4-0.2-0.8-0.3-1.3-0.3c-0.5,0-0.9,0.1-1.3,0.3c-0.4,0.2-0.8,0.5-1.1,0.9
		c-0.3,0.4-0.5,0.8-0.7,1.2c-0.2,0.5-0.3,1-0.3,1.5c0,0.5,0.1,1.1,0.3,1.5c0.2,0.5,0.4,0.9,0.7,1.3c0.3,0.4,0.7,0.6,1.1,0.8
		C65.4,38.6,65.9,38.7,66.3,38.7z"/>
	<path id="s" class="st0" d="M80.3,38.1c0.1-0.1,0.3-0.3,0.4-0.4c0.1-0.2,0.2-0.3,0.2-0.6c0-0.3-0.1-0.5-0.3-0.6
		c-0.2-0.2-0.4-0.3-0.7-0.4c-0.3-0.1-0.5-0.2-0.8-0.3c-0.3-0.1-0.5-0.1-0.7-0.2c-0.5-0.1-1-0.3-1.5-0.5c-0.5-0.2-0.9-0.4-1.2-0.7
		c-0.3-0.3-0.6-0.6-0.8-0.9c-0.2-0.4-0.3-0.8-0.3-1.3c0-0.5,0.1-0.9,0.3-1.3c0.2-0.4,0.5-0.8,0.9-1.1c0.4-0.3,0.8-0.6,1.3-0.7
		c0.5-0.2,1-0.3,1.6-0.3c0.5,0,1,0.1,1.4,0.2c0.4,0.1,0.9,0.3,1.2,0.6c0.4,0.2,0.7,0.5,0.9,0.9c0.2,0.3,0.4,0.7,0.5,1.2l-2.1,0.5
		c-0.1-0.4-0.3-0.7-0.6-0.9c-0.3-0.3-0.8-0.4-1.3-0.4c-0.2,0-0.4,0-0.6,0.1c-0.2,0.1-0.4,0.1-0.6,0.3c-0.2,0.1-0.3,0.2-0.4,0.4
		c-0.1,0.2-0.2,0.3-0.2,0.5c0,0.2,0.1,0.4,0.2,0.6c0.1,0.2,0.3,0.3,0.5,0.4c0.2,0.1,0.4,0.2,0.6,0.3c0.2,0.1,0.4,0.1,0.6,0.2
		c0.8,0.2,1.5,0.4,2.1,0.7c0.6,0.2,1,0.5,1.3,0.8c0.3,0.3,0.6,0.6,0.7,0.9c0.1,0.3,0.2,0.7,0.2,1.2c0,0.5-0.1,1-0.3,1.4
		c-0.2,0.4-0.6,0.8-1,1.2c-0.4,0.3-0.9,0.6-1.5,0.8c-0.6,0.2-1.2,0.3-1.8,0.3c-1,0-1.9-0.2-2.6-0.7c-0.8-0.5-1.3-1.1-1.6-1.9l2-0.9
		c0.3,0.6,0.6,0.9,1,1.1c0.4,0.2,0.9,0.3,1.4,0.3C79.3,38.6,79.8,38.4,80.3,38.1z"/>
	<path id="e" class="st0" d="M91.1,40.8c-0.8,0-1.6-0.2-2.3-0.5c-0.7-0.3-1.4-0.7-1.9-1.3c-0.5-0.5-1-1.2-1.3-1.9
		c-0.3-0.7-0.5-1.5-0.5-2.3s0.1-1.6,0.4-2.3c0.3-0.7,0.7-1.4,1.2-1.9c0.5-0.5,1.1-1,1.8-1.3c0.7-0.3,1.4-0.5,2.2-0.5
		c0.8,0,1.5,0.1,2.2,0.4c0.7,0.3,1.2,0.7,1.7,1.3c0.5,0.6,0.9,1.3,1.1,2.2c0.3,0.9,0.4,1.9,0.4,3.2h-8.5c0.1,0.4,0.3,0.8,0.5,1.2
		c0.2,0.4,0.5,0.7,0.8,0.9c0.3,0.3,0.7,0.5,1.1,0.6c0.4,0.1,0.8,0.2,1.3,0.2c0.6,0,1.2-0.1,1.7-0.3c0.5-0.2,1-0.5,1.3-0.9l1.4,1.4
		c-0.6,0.6-1.2,1-2,1.3C93,40.6,92.1,40.8,91.1,40.8z M90.7,30.9c-0.4,0-0.7,0.1-1,0.2c-0.3,0.1-0.6,0.3-0.9,0.6
		c-0.3,0.3-0.5,0.6-0.7,0.9c-0.2,0.3-0.3,0.7-0.4,1.1h6c0-0.4-0.1-0.7-0.3-1.1c-0.1-0.4-0.3-0.7-0.6-0.9c-0.3-0.3-0.6-0.5-0.9-0.6
		C91.5,31,91.2,30.9,90.7,30.9z"/>
	<path id="r" class="st0" d="M105.8,31.2c-0.1,0-0.2-0.1-0.3-0.1c-0.1,0-0.2-0.1-0.3-0.1c-0.1,0-0.3,0-0.4,0c-0.5,0-0.9,0.1-1.3,0.2
		c-0.4,0.1-0.7,0.3-1,0.6c-0.3,0.3-0.5,0.6-0.7,0.9c-0.2,0.3-0.3,0.7-0.3,1.1l0,6.8h-2.3V29h1.8l0.5,1.3c0.3-0.5,0.7-0.8,1.2-1.1
		c0.5-0.3,1.2-0.4,1.9-0.4c0.5,0,1.1,0.1,1.7,0.2L105.8,31.2z"/>
	<path id="Z" class="st0" d="M114.6,40.5v-2l8.9-12.7h-8.1v-2.2h11.1v2l-8.8,12.6h9.2v2.3H114.6z"/>
	<path id="o" class="st0" d="M135.1,40.8c-0.8,0-1.5-0.2-2.2-0.5c-0.7-0.3-1.3-0.7-1.8-1.3c-0.5-0.5-0.9-1.2-1.2-1.9
		c-0.3-0.7-0.4-1.5-0.4-2.3s0.1-1.6,0.4-2.3c0.3-0.7,0.7-1.4,1.2-1.9c0.5-0.5,1.1-1,1.8-1.3c0.7-0.3,1.4-0.5,2.2-0.5
		c0.8,0,1.5,0.2,2.2,0.5c0.7,0.3,1.3,0.7,1.8,1.3c0.5,0.5,0.9,1.2,1.2,1.9c0.3,0.7,0.5,1.5,0.5,2.3s-0.2,1.6-0.5,2.3
		c-0.3,0.7-0.7,1.4-1.2,1.9c-0.5,0.5-1.1,1-1.8,1.3C136.6,40.6,135.9,40.8,135.1,40.8z M135.1,30.9c-0.5,0-0.9,0.1-1.3,0.3
		c-0.4,0.2-0.8,0.5-1.1,0.8c-0.3,0.4-0.6,0.8-0.7,1.2c-0.2,0.5-0.3,1-0.3,1.5c0,0.5,0.1,1.1,0.3,1.5c0.2,0.5,0.4,0.9,0.7,1.3
		c0.3,0.4,0.7,0.6,1.1,0.8c0.4,0.2,0.9,0.3,1.3,0.3c0.5,0,0.9-0.1,1.3-0.3c0.4-0.2,0.8-0.5,1.1-0.8c0.3-0.4,0.5-0.8,0.7-1.3
		c0.2-0.5,0.3-1,0.3-1.5c0-0.5-0.1-1-0.3-1.5c-0.2-0.5-0.4-0.9-0.7-1.2c-0.3-0.4-0.7-0.6-1.1-0.8C136,31,135.6,30.9,135.1,30.9z"/>
	<path id="n" class="st0" d="M145.5,40.5h-2.3V29h1.8l0.5,1c0.4-0.4,0.8-0.7,1.4-0.9c0.5-0.2,1.1-0.4,1.8-0.4c0.4,0,0.9,0.1,1.4,0.2
		c0.5,0.1,1,0.4,1.5,0.7c0.5,0.3,0.8,0.8,1.1,1.5c0.3,0.6,0.5,1.4,0.5,2.4v6.9h-2.2v-7c0-0.5-0.1-0.9-0.2-1.2
		c-0.2-0.3-0.4-0.6-0.6-0.8c-0.2-0.2-0.5-0.4-0.8-0.4c-0.3-0.1-0.6-0.1-1-0.1c-0.3,0-0.5,0-0.9,0.1c-0.3,0.1-0.6,0.2-0.9,0.5
		c-0.3,0.2-0.5,0.5-0.7,0.8c-0.2,0.3-0.3,0.7-0.3,1.2V40.5z"/>
	<path id="e_00000034053219230083010560000010326080205022667430_" class="st0" d="M161.9,40.8c-0.8,0-1.6-0.2-2.3-0.5
		c-0.7-0.3-1.4-0.7-1.9-1.3c-0.5-0.5-1-1.2-1.3-1.9c-0.3-0.7-0.5-1.5-0.5-2.3s0.1-1.6,0.4-2.3c0.3-0.7,0.7-1.4,1.2-1.9
		c0.5-0.5,1.1-1,1.8-1.3c0.7-0.3,1.4-0.5,2.2-0.5c0.8,0,1.5,0.1,2.2,0.4c0.7,0.3,1.2,0.7,1.7,1.3c0.5,0.6,0.9,1.3,1.1,2.2
		c0.3,0.9,0.4,1.9,0.4,3.2h-8.5c0.1,0.4,0.3,0.8,0.5,1.2c0.2,0.4,0.5,0.7,0.8,0.9c0.3,0.3,0.7,0.5,1.1,0.6c0.4,0.1,0.8,0.2,1.3,0.2
		c0.6,0,1.2-0.1,1.7-0.3c0.5-0.2,1-0.5,1.3-0.9l1.4,1.4c-0.6,0.6-1.2,1-2,1.3C163.7,40.6,162.8,40.8,161.9,40.8z M161.5,30.9
		c-0.4,0-0.7,0.1-1,0.2c-0.3,0.1-0.6,0.3-0.9,0.6c-0.3,0.3-0.5,0.6-0.7,0.9c-0.2,0.3-0.3,0.7-0.4,1.1h6c0-0.4-0.1-0.7-0.3-1.1
		c-0.1-0.4-0.3-0.7-0.6-0.9c-0.3-0.3-0.6-0.5-0.9-0.6C162.3,31,161.9,30.9,161.5,30.9z"/>
</g>
<g id="Клевер">
	<path class="st0" d="M20.1,19.3c-11,0-20,9-20,20c0,11,9,20,20,20s20-9,20-20C40.1,28.3,31.2,19.3,20.1,19.3z M33.1,52.3
		c-1.7,1.7-3.6,3-5.8,3.9c-2.3,1-4.7,1.4-7.1,1.4s-4.9-0.5-7.1-1.4c-2.2-0.9-4.1-2.2-5.8-3.9c-1.7-1.7-3-3.6-3.9-5.8
		c-1-2.3-1.4-4.7-1.4-7.1c0-2.5,0.5-4.9,1.4-7.1c0.9-2.2,2.2-4.1,3.9-5.8c1.7-1.7,3.6-3,5.8-3.9c2.3-1,4.7-1.4,7.1-1.4
		s4.9,0.5,7.1,1.4c2.2,0.9,4.1,2.2,5.8,3.9c1.7,1.7,3,3.6,3.9,5.8c1,2.3,1.4,4.7,1.4,7.1c0,2.5-0.5,4.9-1.4,7.1
		C36.1,48.7,34.8,50.6,33.1,52.3z"/>
	<path class="st0" d="M19,51.6c-0.3-0.6-1.1-4.2-1.3-5.2c-0.7-4.6,0.5-7.1,1-7.9c0.1-0.2,0.4-0.6,0.6-0.7c0.4-0.2,0.5,0.1,0.3,0.6
		c-0.4,0.9-0.9,3.2-0.9,4.2c0.1,2,0.6,4,1.3,5.9c0.7,2,1.7,3.1,0.6,3.8C19.9,52.6,19.3,52.2,19,51.6"/>
	<path class="st0" d="M30.6,41.3c-0.9,1.4-2.7,1.9-4.2,1.2c1.3,1.1,1.6,2.9,0.6,4.4c-1,1.6-3.1,2-4.6,1c-2.3-1.6-2-5.2-2.8-9.8
		c4.5-1.2,7.6-2.9,10-1.5C31.1,37.7,31.6,39.7,30.6,41.3"/>
	<path class="st0" d="M27.6,28.5c-1.5-0.7-3.4-0.2-4.3,1.2c0.5-1.6-0.2-3.3-1.7-4.1c-1.7-0.8-3.7-0.1-4.5,1.6
		c-1.1,2.6,0.7,6.3,2.4,10.6c4.5-1.4,8.3-2.3,9.6-4.8C29.9,31.4,29.2,29.3,27.6,28.5"/>
	<path class="st0" d="M9.5,31.8c-0.5,1.6,0.4,3.3,1.9,4c-1.6-0.2-3.2,0.8-3.7,2.4C7.2,40,8.2,41.8,10,42.3c2.7,0.7,5.2-1.9,9.2-4.3
		c-2.1-4.2-2.8-7.7-5.5-8.5C11.9,29,10.1,30,9.5,31.8"/>
	<path class="st0" d="M20.6,37.8c0.2,0.6-0.1,1.3-0.8,1.5c-0.6,0.2-1.3-0.1-1.5-0.8c-0.2-0.6,0.1-1.3,0.8-1.5S20.4,37.1,20.6,37.8"
		/>
</g>
</svg>
