<?xml version="1.0" encoding="utf-8"?>
<!-- Generator: Adobe Illustrator 27.0.1, SVG Export Plug-In . SVG Version: 6.00 Build 0)  -->
<svg version="1.1" id="Слой_1" xmlns="http://www.w3.org/2000/svg" xmlns:xlink="http://www.w3.org/1999/xlink" x="0px" y="0px"
	 width="229.7px" height="80px" viewBox="0 0 229.7 80" style="enable-background:new 0 0 229.7 80;" xml:space="preserve">
<style type="text/css">
	.st0{fill:#DCDCDC;}
</style>
<path class="st0" d="M24.7,41.2c2.7,0,4.9-2.2,4.9-4.9v0c0-2.7-2.2-4.9-4.9-4.9H0.1v16.4h7.8v-6.6h2.9l7.2,5.3
	c1.1,0.8,2.5,1.3,3.9,1.3h1.4h7.2l-10.4-6.6H24.7z M16.2,38.4l-8.3,0v-4.2l11.8,0c1.2,0,2.1,1,2.1,2.1c0,1.2-0.9,2.1-2.1,2.1H16.2z"
	/>
<path class="st0" d="M63.8,45.1H40.7v-4H65v-2.8H40.7v-4h23.1c2.2,0,3.2-1.3,4.6-2.8c-8.5,0-27,0-35.5,0v16.4c8.5,0,27,0,35.5,0
	C67,46.4,66,45.1,63.8,45.1z"/>
<path class="st0" d="M91.9,47.8h7.8v-9.6H85.2c-2.2,0-3.2,1.3-4.6,2.7h11.4v4.1c-3.9,0-7.2,0-11.1,0c-2.7,0-4.7-2.6-4.7-5.5
	c0-3,2.2-5.4,4.4-5.4h14.5c2.2,0,3.2-1.3,4.6-2.8l-23.2,0c-4.5,0-8.2,3.7-8.2,8.2c0,4.5,3.7,8.2,8.2,8.2
	C81.3,47.8,87.1,47.8,91.9,47.8L91.9,47.8z"/>
<path class="st0" d="M122.5,31.4h-9.7L102,47.8h4.9l2.4-3.9h12.4l2.5,3.9h8.8L122.5,31.4z M111.1,41.3l4.4-7l4.5,7H111.1z"/>
<path class="st0" d="M160.2,34.3v13.5h8.4V31.4l-7.7,0c-1.7,0.1-3,0.8-3.8,2.2l-5.1,8.1l-6.8-8.3c-1-1.3-2.5-2.1-4.2-2.1h-5.9v16.4
	h3V34.7l10,13.1h3.5L160.2,34.3z"/>
<path class="st0" d="M195.3,34.2c2.2,0,3.2-1.3,4.6-2.8c-8.5,0-19.2,0-27.6,0v16.4c8.5,0,19.1,0,27.6,0c-1.4-1.4-2.4-2.8-4.6-2.8
	h-15.2v-4h16.4v-2.8h-16.4v-4H195.3z"/>
<path class="st0" d="M229,41c-0.2-0.5-0.6-1-1-1.4c-0.9-0.8-2.1-1.4-3.4-1.4h-14c-1.1,0-2.1-0.9-2.1-2.1c0-1.1,0.9-2,2.1-2l12.7,0
	c1.3,0,2.4-0.5,3.3-1.4l1.4-1.4h-22.4c-2.6,0-4.8,2.2-4.8,4.8c0,0.7,0.2,1.4,0.5,2.1c0.2,0.5,0.6,1,1,1.4c0.9,0.8,2.1,1.4,3.4,1.4
	h14c1.1,0,2.1,0.9,2.1,2.1c0,1.1-0.9,2-2.1,2l-12.7,0c-1.3,0-2.4,0.5-3.3,1.4l-1.4,1.4h22.4c2.6,0,4.8-2.2,4.8-4.8
	C229.5,42.3,229.3,41.6,229,41z"/>
</svg>
