<?xml version="1.0" encoding="utf-8"?>
<!-- Generator: Adobe Illustrator 27.0.1, SVG Export Plug-In . SVG Version: 6.00 Build 0)  -->
<svg version="1.1" id="Слой_1" xmlns="http://www.w3.org/2000/svg" xmlns:xlink="http://www.w3.org/1999/xlink" x="0px" y="0px"
	 width="77.1px" height="80px" viewBox="0 0 77.1 80" style="enable-background:new 0 0 77.1 80;" xml:space="preserve">
<style type="text/css">
	.st0{fill:#DCDCDC;}
</style>
<path class="st0" d="M36,42.8h-9.4L25.1,46H20l8.8-16.8h5.1L42.7,46h-5.1L36,42.8z M28.3,39.5h6.1l-3.1-6.2L28.3,39.5z"/>
<path class="st0" d="M50.2,39.1V46h-4.5v-6.9l-8.2-10h5.1l5.3,6.8l5.3-6.8l3.6,1.8L50.2,39.1z"/>
<path class="st0" d="M72.2,43.8c-0.3-0.3-0.5-0.5-0.8-0.8c-0.3-0.4-0.7-0.7-1-1.1c-0.5-0.5-1-1-1.4-1.6c-0.5-0.5-1-1-1.4-1.6
	c-0.3-0.4-0.7-0.7-1-1.1c0,0-0.2-0.2-0.2-0.2c0.5-0.6,1-1.3,1.5-1.9c1.7-2.3,3.1-4.4,4.1-6.5c2.3-4.5,2.8-8.2,1.1-10.4
	c-3.3-4.2-14.1-1.1-25.8,6.9c8.9-5.5,16.8-7.3,19.4-3.9c1.9,2.5,0.5,7.2-3.2,12.7L62.2,33L62,32.8l-3.3-3.6h-5.4l4.7,5.1
	c0,0,2.9,3.1,2.9,3.1l0.2,0.3c-2.3,2.8-5,5.6-8.2,8.4c-0.5,0.5-1.1,0.9-1.6,1.4c-11.9,9.8-24.3,14.2-27.7,9.8
	c-1.1-1.4-1.1-3.4-0.3-5.9c-1.9,4.1-2.3,7.5-0.7,9.5c3.9,5,18.5-0.3,32.4-11.9c3.3-2.7,6.2-5.6,8.8-8.3l5,5.4h2.6c0,0,2.8,0,2.8,0
	h2.6v0c0,0-0.4,0-0.4,0c-0.2,0-0.3,0-0.5-0.1c-0.3-0.1-0.6-0.1-0.9-0.2c-0.6-0.2-1.1-0.5-1.6-0.8C73,44.5,72.6,44.2,72.2,43.8z"/>
<path class="st0" d="M19.7,29.2l-6.1,12.7L7.5,29.2c0,0-5.1,0-5.1,0H0.2c0,0,0,0,0,0c0,0,0.7,0.1,0.8,0.1c0.3,0.1,0.5,0.2,0.7,0.3
	c0.5,0.2,1,0.6,1.3,1.1c0.4,0.5,0.6,1.1,0.9,1.6c0.4,0.8,0.8,1.5,1.1,2.2c0.2,0.4,0.4,0.8,0.6,1.1c0.3,0.5,0.5,1.1,0.8,1.6
	c0.3,0.6,0.6,1.3,1,1.9c0.3,0.7,0.7,1.3,1,2c0.3,0.6,0.6,1.2,0.9,1.9c0.3,0.5,0.5,1,0.8,1.6c0.2,0.4,0.4,0.7,0.5,1.1
	c0.1,0.1,0.1,0.2,0.2,0.4h5.3l8.6-16.8H19.7z"/>
</svg>
